<svg xmlns="http://www.w3.org/2000/svg" xmlns:xlink="http://www.w3.org/1999/xlink" contentStyleType="text/css" height="859px" preserveAspectRatio="none" style="width:1234px;height:859px;background:#FFFFFF;" version="1.1" viewBox="0 0 1234 859" width="1234px" zoomAndPan="magnify"><defs/><g><!--class CoroutineContext--><g id="elem_CoroutineContext"><rect codeLine="1" fill="#F1F1F1" height="68.2719" id="CoroutineContext" rx="2.5" ry="2.5" style="stroke:#181818;stroke-width:0.5;" width="329.2247" x="252.2" y="7"/><ellipse cx="354.3156" cy="23" fill="#B4A7E5" rx="11" ry="11" style="stroke:#181818;stroke-width:1.0;"/><path d="M350.2374,18.7656 L350.2374,16.6094 L357.6281,16.6094 L357.6281,18.7656 L355.1593,18.7656 L355.1593,26.8438 L357.6281,26.8438 L357.6281,29 L350.2374,29 L350.2374,26.8438 L352.7062,26.8438 L352.7062,18.7656 L350.2374,18.7656 Z " fill="#000000"/><text fill="#000000" font-family="Noto Sans CJK TC" font-size="14" font-style="italic" lengthAdjust="spacing" textLength="116.4935" x="374.8156" y="29.104">CoroutineContext</text><line style="stroke:#181818;stroke-width:0.5;" x1="253.2" x2="580.4247" y1="39" y2="39"/><line style="stroke:#181818;stroke-width:0.5;" x1="253.2" x2="580.4247" y1="47" y2="47"/><text fill="#000000" font-family="Noto Sans CJK TC" font-size="14" lengthAdjust="spacing" textLength="317.2247" x="258.2" y="67.2399">public CoroutineContext plus(CoroutineContext)</text></g><!--class Element--><g id="elem_Element"><rect codeLine="5" fill="#F1F1F1" height="68.2719" id="Element" rx="2.5" ry="2.5" style="stroke:#181818;stroke-width:0.5;" width="105.9396" x="513.84" y="145.41"/><ellipse cx="537.5807" cy="161.41" fill="#B4A7E5" rx="11" ry="11" style="stroke:#181818;stroke-width:1.0;"/><path d="M533.5026,157.1756 L533.5026,155.0194 L540.8932,155.0194 L540.8932,157.1756 L538.4245,157.1756 L538.4245,165.2537 L540.8932,165.2537 L540.8932,167.41 L533.5026,167.41 L533.5026,165.2537 L535.9714,165.2537 L535.9714,157.1756 L533.5026,157.1756 Z " fill="#000000"/><text fill="#000000" font-family="Noto Sans CJK TC" font-size="14" font-style="italic" lengthAdjust="spacing" textLength="54.5158" x="553.5231" y="167.514">Element</text><line style="stroke:#181818;stroke-width:0.5;" x1="514.84" x2="618.7796" y1="177.41" y2="177.41"/><text fill="#000000" font-family="Noto Sans CJK TC" font-size="14" lengthAdjust="spacing" textLength="93.9396" x="519.84" y="197.6499">public Key key</text><line style="stroke:#181818;stroke-width:0.5;" x1="514.84" x2="618.7796" y1="205.6819" y2="205.6819"/></g><!--class AbstractCoroutineContextElement--><g id="elem_AbstractCoroutineContextElement"><rect codeLine="10" fill="#F1F1F1" height="48" id="AbstractCoroutineContextElement" rx="2.5" ry="2.5" style="stroke:#181818;stroke-width:0.5;" width="257.7351" x="634.94" y="283.82"/><ellipse cx="649.94" cy="299.82" fill="#ADD1B2" rx="11" ry="11" style="stroke:#181818;stroke-width:1.0;"/><path d="M652.9088,305.4606 Q652.3306,305.7575 651.69,305.8981 Q651.0494,306.0544 650.3463,306.0544 Q647.8463,306.0544 646.5181,304.4137 Q645.2056,302.7575 645.2056,299.6325 Q645.2056,296.5075 646.5181,294.8512 Q647.8463,293.195 650.3463,293.195 Q651.0494,293.195 651.69,293.3512 Q652.3463,293.5075 652.9088,293.8044 L652.9088,296.5231 Q652.2838,295.945 651.69,295.6794 Q651.0963,295.3981 650.4713,295.3981 Q649.1275,295.3981 648.44,296.4762 Q647.7525,297.5387 647.7525,299.6325 Q647.7525,301.7262 648.44,302.8044 Q649.1275,303.8669 650.4713,303.8669 Q651.0963,303.8669 651.69,303.6012 Q652.2838,303.32 652.9088,302.7419 L652.9088,305.4606 Z " fill="#000000"/><text fill="#000000" font-family="Noto Sans CJK TC" font-size="14" lengthAdjust="spacing" textLength="225.7351" x="663.94" y="305.924">AbstractCoroutineContextElement</text><line style="stroke:#181818;stroke-width:0.5;" x1="635.94" x2="891.6751" y1="315.82" y2="315.82"/><line style="stroke:#181818;stroke-width:0.5;" x1="635.94" x2="891.6751" y1="323.82" y2="323.82"/></g><!--class ContinuationInterceptor--><g id="elem_ContinuationInterceptor"><rect codeLine="12" fill="#F1F1F1" height="48" id="ContinuationInterceptor" rx="2.5" ry="2.5" style="stroke:#181818;stroke-width:0.5;" width="192.0334" x="965.79" y="283.82"/><ellipse cx="980.79" cy="299.82" fill="#B4A7E5" rx="11" ry="11" style="stroke:#181818;stroke-width:1.0;"/><path d="M976.7119,295.5856 L976.7119,293.4294 L984.1025,293.4294 L984.1025,295.5856 L981.6338,295.5856 L981.6338,303.6637 L984.1025,303.6637 L984.1025,305.82 L976.7119,305.82 L976.7119,303.6637 L979.1806,303.6637 L979.1806,295.5856 L976.7119,295.5856 Z " fill="#000000"/><text fill="#000000" font-family="Noto Sans CJK TC" font-size="14" font-style="italic" lengthAdjust="spacing" textLength="160.0334" x="994.79" y="305.924">ContinuationInterceptor</text><line style="stroke:#181818;stroke-width:0.5;" x1="966.79" x2="1156.8234" y1="315.82" y2="315.82"/><line style="stroke:#181818;stroke-width:0.5;" x1="966.79" x2="1156.8234" y1="323.82" y2="323.82"/></g><!--class CoroutineDispatcher--><g id="elem_CoroutineDispatcher"><rect codeLine="14" fill="#F1F1F1" height="48" id="CoroutineDispatcher" rx="2.5" ry="2.5" style="stroke:#181818;stroke-width:0.5;" width="167.9535" x="977.83" y="391.82"/><ellipse cx="992.83" cy="407.82" fill="#ADD1B2" rx="11" ry="11" style="stroke:#181818;stroke-width:1.0;"/><path d="M995.7988,413.4606 Q995.2206,413.7575 994.58,413.8981 Q993.9394,414.0544 993.2363,414.0544 Q990.7363,414.0544 989.4081,412.4138 Q988.0956,410.7575 988.0956,407.6325 Q988.0956,404.5075 989.4081,402.8513 Q990.7363,401.195 993.2363,401.195 Q993.9394,401.195 994.58,401.3513 Q995.2363,401.5075 995.7988,401.8044 L995.7988,404.5231 Q995.1738,403.945 994.58,403.6794 Q993.9863,403.3981 993.3613,403.3981 Q992.0175,403.3981 991.33,404.4763 Q990.6425,405.5388 990.6425,407.6325 Q990.6425,409.7263 991.33,410.8044 Q992.0175,411.8669 993.3613,411.8669 Q993.9863,411.8669 994.58,411.6013 Q995.1738,411.32 995.7988,410.7419 L995.7988,413.4606 Z " fill="#000000"/><text fill="#000000" font-family="Noto Sans CJK TC" font-size="14" lengthAdjust="spacing" textLength="135.9535" x="1006.83" y="413.924">CoroutineDispatcher</text><line style="stroke:#181818;stroke-width:0.5;" x1="978.83" x2="1144.7835" y1="423.82" y2="423.82"/><line style="stroke:#181818;stroke-width:0.5;" x1="978.83" x2="1144.7835" y1="431.82" y2="431.82"/></g><!--class ExecutorCoroutineDispatcher--><g id="elem_ExecutorCoroutineDispatcher"><rect codeLine="19" fill="#F1F1F1" height="48" id="ExecutorCoroutineDispatcher" rx="2.5" ry="2.5" style="stroke:#181818;stroke-width:0.5;" width="225.7592" x="948.93" y="499.82"/><ellipse cx="963.93" cy="515.82" fill="#ADD1B2" rx="11" ry="11" style="stroke:#181818;stroke-width:1.0;"/><path d="M966.8988,521.4606 Q966.3206,521.7575 965.68,521.8981 Q965.0394,522.0544 964.3363,522.0544 Q961.8363,522.0544 960.5081,520.4137 Q959.1956,518.7575 959.1956,515.6325 Q959.1956,512.5075 960.5081,510.8512 Q961.8363,509.195 964.3363,509.195 Q965.0394,509.195 965.68,509.3512 Q966.3363,509.5075 966.8988,509.8044 L966.8988,512.5231 Q966.2738,511.945 965.68,511.6794 Q965.0863,511.3981 964.4613,511.3981 Q963.1175,511.3981 962.43,512.4762 Q961.7425,513.5387 961.7425,515.6325 Q961.7425,517.7262 962.43,518.8044 Q963.1175,519.8669 964.4613,519.8669 Q965.0863,519.8669 965.68,519.6012 Q966.2738,519.32 966.8988,518.7419 L966.8988,521.4606 Z " fill="#000000"/><text fill="#000000" font-family="Noto Sans CJK TC" font-size="14" lengthAdjust="spacing" textLength="193.7592" x="977.93" y="521.924">ExecutorCoroutineDispatcher</text><line style="stroke:#181818;stroke-width:0.5;" x1="949.93" x2="1173.6892" y1="531.82" y2="531.82"/><line style="stroke:#181818;stroke-width:0.5;" x1="949.93" x2="1173.6892" y1="539.82" y2="539.82"/></g><!--class ExperimentalCoroutineDispatcher--><g id="elem_ExperimentalCoroutineDispatcher"><rect codeLine="22" fill="#F1F1F1" height="48" id="ExperimentalCoroutineDispatcher" rx="2.5" ry="2.5" style="stroke:#181818;stroke-width:0.5;" width="255.2851" x="934.17" y="607.82"/><ellipse cx="949.17" cy="623.82" fill="#ADD1B2" rx="11" ry="11" style="stroke:#181818;stroke-width:1.0;"/><path d="M952.1388,629.4606 Q951.5606,629.7575 950.92,629.8981 Q950.2794,630.0544 949.5763,630.0544 Q947.0763,630.0544 945.7481,628.4138 Q944.4356,626.7575 944.4356,623.6325 Q944.4356,620.5075 945.7481,618.8513 Q947.0763,617.195 949.5763,617.195 Q950.2794,617.195 950.92,617.3513 Q951.5763,617.5075 952.1388,617.8044 L952.1388,620.5231 Q951.5138,619.945 950.92,619.6794 Q950.3263,619.3981 949.7013,619.3981 Q948.3575,619.3981 947.67,620.4763 Q946.9825,621.5388 946.9825,623.6325 Q946.9825,625.7263 947.67,626.8044 Q948.3575,627.8669 949.7013,627.8669 Q950.3263,627.8669 950.92,627.6013 Q951.5138,627.32 952.1388,626.7419 L952.1388,629.4606 Z " fill="#000000"/><text fill="#000000" font-family="Noto Sans CJK TC" font-size="14" lengthAdjust="spacing" textLength="223.2851" x="963.17" y="629.924">ExperimentalCoroutineDispatcher</text><line style="stroke:#181818;stroke-width:0.5;" x1="935.17" x2="1188.4551" y1="639.82" y2="639.82"/><line style="stroke:#181818;stroke-width:0.5;" x1="935.17" x2="1188.4551" y1="647.82" y2="647.82"/></g><!--class DefaultScheduler--><g id="elem_DefaultScheduler"><rect codeLine="25" fill="#F1F1F1" height="48" id="DefaultScheduler" rx="2.5" ry="2.5" style="stroke:#181818;stroke-width:0.5;" width="145.6516" x="1081.98" y="715.82"/><ellipse cx="1096.98" cy="731.82" fill="#ADD1B2" rx="11" ry="11" style="stroke:#181818;stroke-width:1.0;"/><path d="M1099.9488,737.4606 Q1099.3706,737.7575 1098.73,737.8981 Q1098.0894,738.0544 1097.3863,738.0544 Q1094.8863,738.0544 1093.5581,736.4138 Q1092.2456,734.7575 1092.2456,731.6325 Q1092.2456,728.5075 1093.5581,726.8513 Q1094.8863,725.195 1097.3863,725.195 Q1098.0894,725.195 1098.73,725.3513 Q1099.3863,725.5075 1099.9488,725.8044 L1099.9488,728.5231 Q1099.3238,727.945 1098.73,727.6794 Q1098.1363,727.3981 1097.5113,727.3981 Q1096.1675,727.3981 1095.48,728.4763 Q1094.7925,729.5388 1094.7925,731.6325 Q1094.7925,733.7263 1095.48,734.8044 Q1096.1675,735.8669 1097.5113,735.8669 Q1098.1363,735.8669 1098.73,735.6013 Q1099.3238,735.32 1099.9488,734.7419 L1099.9488,737.4606 Z " fill="#000000"/><text fill="#000000" font-family="Noto Sans CJK TC" font-size="14" lengthAdjust="spacing" textLength="113.6516" x="1110.98" y="737.924">DefaultScheduler</text><line style="stroke:#181818;stroke-width:0.5;" x1="1082.98" x2="1226.6316" y1="747.82" y2="747.82"/><line style="stroke:#181818;stroke-width:0.5;" x1="1082.98" x2="1226.6316" y1="755.82" y2="755.82"/></g><!--class LimitingDispatcher--><g id="elem_LimitingDispatcher"><rect codeLine="28" fill="#F1F1F1" height="48" id="LimitingDispatcher" rx="2.5" ry="2.5" style="stroke:#181818;stroke-width:0.5;" width="156.5295" x="890.54" y="715.82"/><ellipse cx="905.54" cy="731.82" fill="#ADD1B2" rx="11" ry="11" style="stroke:#181818;stroke-width:1.0;"/><path d="M908.5088,737.4606 Q907.9306,737.7575 907.29,737.8981 Q906.6494,738.0544 905.9463,738.0544 Q903.4463,738.0544 902.1181,736.4138 Q900.8056,734.7575 900.8056,731.6325 Q900.8056,728.5075 902.1181,726.8513 Q903.4463,725.195 905.9463,725.195 Q906.6494,725.195 907.29,725.3513 Q907.9463,725.5075 908.5088,725.8044 L908.5088,728.5231 Q907.8838,727.945 907.29,727.6794 Q906.6963,727.3981 906.0713,727.3981 Q904.7275,727.3981 904.04,728.4763 Q903.3525,729.5388 903.3525,731.6325 Q903.3525,733.7263 904.04,734.8044 Q904.7275,735.8669 906.0713,735.8669 Q906.6963,735.8669 907.29,735.6013 Q907.8838,735.32 908.5088,734.7419 L908.5088,737.4606 Z " fill="#000000"/><text fill="#000000" font-family="Noto Sans CJK TC" font-size="14" lengthAdjust="spacing" textLength="124.5295" x="919.54" y="737.924">LimitingDispatcher</text><line style="stroke:#181818;stroke-width:0.5;" x1="891.54" x2="1046.0695" y1="747.82" y2="747.82"/><line style="stroke:#181818;stroke-width:0.5;" x1="891.54" x2="1046.0695" y1="755.82" y2="755.82"/></g><!--class Job--><g id="elem_Job"><rect codeLine="34" fill="#F1F1F1" height="48" id="Job" rx="2.5" ry="2.5" style="stroke:#181818;stroke-width:0.5;" width="56.6259" x="523.49" y="283.82"/><ellipse cx="538.49" cy="299.82" fill="#B4A7E5" rx="11" ry="11" style="stroke:#181818;stroke-width:1.0;"/><path d="M534.4119,295.5856 L534.4119,293.4294 L541.8025,293.4294 L541.8025,295.5856 L539.3338,295.5856 L539.3338,303.6637 L541.8025,303.6637 L541.8025,305.82 L534.4119,305.82 L534.4119,303.6637 L536.8806,303.6637 L536.8806,295.5856 L534.4119,295.5856 Z " fill="#000000"/><text fill="#000000" font-family="Noto Sans CJK TC" font-size="14" font-style="italic" lengthAdjust="spacing" textLength="24.6259" x="552.49" y="305.924">Job</text><line style="stroke:#181818;stroke-width:0.5;" x1="524.49" x2="579.1159" y1="315.82" y2="315.82"/><line style="stroke:#181818;stroke-width:0.5;" x1="524.49" x2="579.1159" y1="323.82" y2="323.82"/></g><!--class ChildJob--><g id="elem_ChildJob"><rect codeLine="36" fill="#F1F1F1" height="48" id="ChildJob" rx="2.5" ry="2.5" style="stroke:#181818;stroke-width:0.5;" width="90.5618" x="487.53" y="391.82"/><ellipse cx="502.53" cy="407.82" fill="#B4A7E5" rx="11" ry="11" style="stroke:#181818;stroke-width:1.0;"/><path d="M498.4519,403.5856 L498.4519,401.4294 L505.8425,401.4294 L505.8425,403.5856 L503.3738,403.5856 L503.3738,411.6638 L505.8425,411.6638 L505.8425,413.82 L498.4519,413.82 L498.4519,411.6638 L500.9206,411.6638 L500.9206,403.5856 L498.4519,403.5856 Z " fill="#000000"/><text fill="#000000" font-family="Noto Sans CJK TC" font-size="14" font-style="italic" lengthAdjust="spacing" textLength="58.5618" x="516.53" y="413.924">ChildJob</text><line style="stroke:#181818;stroke-width:0.5;" x1="488.53" x2="577.0918" y1="423.82" y2="423.82"/><line style="stroke:#181818;stroke-width:0.5;" x1="488.53" x2="577.0918" y1="431.82" y2="431.82"/></g><!--class ParentJob--><g id="elem_ParentJob"><rect codeLine="38" fill="#F1F1F1" height="48" id="ParentJob" rx="2.5" ry="2.5" style="stroke:#181818;stroke-width:0.5;" width="100.3757" x="612.62" y="391.82"/><ellipse cx="627.62" cy="407.82" fill="#B4A7E5" rx="11" ry="11" style="stroke:#181818;stroke-width:1.0;"/><path d="M623.5419,403.5856 L623.5419,401.4294 L630.9325,401.4294 L630.9325,403.5856 L628.4638,403.5856 L628.4638,411.6638 L630.9325,411.6638 L630.9325,413.82 L623.5419,413.82 L623.5419,411.6638 L626.0106,411.6638 L626.0106,403.5856 L623.5419,403.5856 Z " fill="#000000"/><text fill="#000000" font-family="Noto Sans CJK TC" font-size="14" font-style="italic" lengthAdjust="spacing" textLength="68.3757" x="641.62" y="413.924">ParentJob</text><line style="stroke:#181818;stroke-width:0.5;" x1="613.62" x2="711.9957" y1="423.82" y2="423.82"/><line style="stroke:#181818;stroke-width:0.5;" x1="613.62" x2="711.9957" y1="431.82" y2="431.82"/></g><!--class SelectClause0--><g id="elem_SelectClause0"><rect codeLine="40" fill="#F1F1F1" height="48" id="SelectClause0" rx="2.5" ry="2.5" style="stroke:#181818;stroke-width:0.5;" width="123.6156" x="748" y="391.82"/><ellipse cx="763" cy="407.82" fill="#B4A7E5" rx="11" ry="11" style="stroke:#181818;stroke-width:1.0;"/><path d="M758.9219,403.5856 L758.9219,401.4294 L766.3125,401.4294 L766.3125,403.5856 L763.8438,403.5856 L763.8438,411.6638 L766.3125,411.6638 L766.3125,413.82 L758.9219,413.82 L758.9219,411.6638 L761.3906,411.6638 L761.3906,403.5856 L758.9219,403.5856 Z " fill="#000000"/><text fill="#000000" font-family="Noto Sans CJK TC" font-size="14" font-style="italic" lengthAdjust="spacing" textLength="91.6156" x="777" y="413.924">SelectClause0</text><line style="stroke:#181818;stroke-width:0.5;" x1="749" x2="870.6156" y1="423.82" y2="423.82"/><line style="stroke:#181818;stroke-width:0.5;" x1="749" x2="870.6156" y1="431.82" y2="431.82"/></g><!--class JobSupport--><g id="elem_JobSupport"><rect codeLine="42" fill="#F1F1F1" height="48" id="JobSupport" rx="2.5" ry="2.5" style="stroke:#181818;stroke-width:0.5;" width="110.0217" x="607.8" y="499.82"/><ellipse cx="622.8" cy="515.82" fill="#ADD1B2" rx="11" ry="11" style="stroke:#181818;stroke-width:1.0;"/><path d="M625.7688,521.4606 Q625.1906,521.7575 624.55,521.8981 Q623.9094,522.0544 623.2063,522.0544 Q620.7063,522.0544 619.3781,520.4137 Q618.0656,518.7575 618.0656,515.6325 Q618.0656,512.5075 619.3781,510.8512 Q620.7063,509.195 623.2063,509.195 Q623.9094,509.195 624.55,509.3512 Q625.2063,509.5075 625.7688,509.8044 L625.7688,512.5231 Q625.1438,511.945 624.55,511.6794 Q623.9563,511.3981 623.3313,511.3981 Q621.9875,511.3981 621.3,512.4762 Q620.6125,513.5387 620.6125,515.6325 Q620.6125,517.7262 621.3,518.8044 Q621.9875,519.8669 623.3313,519.8669 Q623.9563,519.8669 624.55,519.6012 Q625.1438,519.32 625.7688,518.7419 L625.7688,521.4606 Z " fill="#000000"/><text fill="#000000" font-family="Noto Sans CJK TC" font-size="14" lengthAdjust="spacing" textLength="78.0217" x="636.8" y="521.924">JobSupport</text><line style="stroke:#181818;stroke-width:0.5;" x1="608.8" x2="716.8217" y1="531.82" y2="531.82"/><line style="stroke:#181818;stroke-width:0.5;" x1="608.8" x2="716.8217" y1="539.82" y2="539.82"/></g><!--class JobImpl--><g id="elem_JobImpl"><rect codeLine="50" fill="#F1F1F1" height="48" id="JobImpl" rx="2.5" ry="2.5" style="stroke:#181818;stroke-width:0.5;" width="86.3478" x="619.63" y="607.82"/><ellipse cx="634.63" cy="623.82" fill="#ADD1B2" rx="11" ry="11" style="stroke:#181818;stroke-width:1.0;"/><path d="M637.5988,629.4606 Q637.0206,629.7575 636.38,629.8981 Q635.7394,630.0544 635.0363,630.0544 Q632.5363,630.0544 631.2081,628.4138 Q629.8956,626.7575 629.8956,623.6325 Q629.8956,620.5075 631.2081,618.8513 Q632.5363,617.195 635.0363,617.195 Q635.7394,617.195 636.38,617.3513 Q637.0363,617.5075 637.5988,617.8044 L637.5988,620.5231 Q636.9738,619.945 636.38,619.6794 Q635.7863,619.3981 635.1613,619.3981 Q633.8175,619.3981 633.13,620.4763 Q632.4425,621.5388 632.4425,623.6325 Q632.4425,625.7263 633.13,626.8044 Q633.8175,627.8669 635.1613,627.8669 Q635.7863,627.8669 636.38,627.6013 Q636.9738,627.32 637.5988,626.7419 L637.5988,629.4606 Z " fill="#000000"/><text fill="#000000" font-family="Noto Sans CJK TC" font-size="14" lengthAdjust="spacing" textLength="54.3478" x="648.63" y="629.924">JobImpl</text><line style="stroke:#181818;stroke-width:0.5;" x1="620.63" x2="704.9778" y1="639.82" y2="639.82"/><line style="stroke:#181818;stroke-width:0.5;" x1="620.63" x2="704.9778" y1="647.82" y2="647.82"/></g><!--class CoroutineScope--><g id="elem_CoroutineScope"><rect codeLine="53" fill="#F1F1F1" height="48" id="CoroutineScope" rx="2.5" ry="2.5" style="stroke:#181818;stroke-width:0.5;" width="137.6576" x="79.98" y="17.14"/><ellipse cx="94.98" cy="33.14" fill="#B4A7E5" rx="11" ry="11" style="stroke:#181818;stroke-width:1.0;"/><path d="M90.9019,28.9056 L90.9019,26.7494 L98.2925,26.7494 L98.2925,28.9056 L95.8238,28.9056 L95.8238,36.9837 L98.2925,36.9837 L98.2925,39.14 L90.9019,39.14 L90.9019,36.9837 L93.3706,36.9837 L93.3706,28.9056 L90.9019,28.9056 Z " fill="#000000"/><text fill="#000000" font-family="Noto Sans CJK TC" font-size="14" font-style="italic" lengthAdjust="spacing" textLength="105.6576" x="108.98" y="39.244">CoroutineScope</text><line style="stroke:#181818;stroke-width:0.5;" x1="80.98" x2="216.6376" y1="49.14" y2="49.14"/><line style="stroke:#181818;stroke-width:0.5;" x1="80.98" x2="216.6376" y1="57.14" y2="57.14"/></g><!--class GlobalScope--><g id="elem_GlobalScope"><rect codeLine="55" fill="#F1F1F1" height="48" id="GlobalScope" rx="2.5" ry="2.5" style="stroke:#181818;stroke-width:0.5;" width="115.0197" x="140.3" y="155.54"/><ellipse cx="155.3" cy="171.54" fill="#ADD1B2" rx="11" ry="11" style="stroke:#181818;stroke-width:1.0;"/><path d="M158.2688,177.1806 Q157.6906,177.4775 157.05,177.6181 Q156.4094,177.7744 155.7063,177.7744 Q153.2063,177.7744 151.8781,176.1337 Q150.5656,174.4775 150.5656,171.3525 Q150.5656,168.2275 151.8781,166.5712 Q153.2063,164.915 155.7063,164.915 Q156.4094,164.915 157.05,165.0712 Q157.7063,165.2275 158.2688,165.5244 L158.2688,168.2431 Q157.6438,167.665 157.05,167.3994 Q156.4563,167.1181 155.8313,167.1181 Q154.4875,167.1181 153.8,168.1962 Q153.1125,169.2587 153.1125,171.3525 Q153.1125,173.4462 153.8,174.5244 Q154.4875,175.5869 155.8313,175.5869 Q156.4563,175.5869 157.05,175.3212 Q157.6438,175.04 158.2688,174.4619 L158.2688,177.1806 Z " fill="#000000"/><text fill="#000000" font-family="Noto Sans CJK TC" font-size="14" lengthAdjust="spacing" textLength="83.0197" x="169.3" y="177.644">GlobalScope</text><line style="stroke:#181818;stroke-width:0.5;" x1="141.3" x2="254.3197" y1="187.54" y2="187.54"/><line style="stroke:#181818;stroke-width:0.5;" x1="141.3" x2="254.3197" y1="195.54" y2="195.54"/></g><!--class CombinedContext--><g id="elem_CombinedContext"><rect codeLine="61" fill="#F1F1F1" height="88.5438" id="CombinedContext" rx="2.5" ry="2.5" style="stroke:#181818;stroke-width:0.5;" width="153.1894" x="325.21" y="135.27"/><ellipse cx="341.1514" cy="151.27" fill="#ADD1B2" rx="11" ry="11" style="stroke:#181818;stroke-width:1.0;"/><path d="M344.1201,156.9106 Q343.542,157.2075 342.9014,157.3481 Q342.2607,157.5044 341.5576,157.5044 Q339.0576,157.5044 337.7295,155.8637 Q336.417,154.2075 336.417,151.0825 Q336.417,147.9575 337.7295,146.3012 Q339.0576,144.645 341.5576,144.645 Q342.2607,144.645 342.9014,144.8012 Q343.5576,144.9575 344.1201,145.2544 L344.1201,147.9731 Q343.4951,147.395 342.9014,147.1294 Q342.3076,146.8481 341.6826,146.8481 Q340.3389,146.8481 339.6514,147.9262 Q338.9639,148.9887 338.9639,151.0825 Q338.9639,153.1762 339.6514,154.2544 Q340.3389,155.3169 341.6826,155.3169 Q342.3076,155.3169 342.9014,155.0512 Q343.4951,154.77 344.1201,154.1919 L344.1201,156.9106 Z " fill="#000000"/><text fill="#000000" font-family="Noto Sans CJK TC" font-size="14" lengthAdjust="spacing" textLength="119.0975" x="355.3606" y="157.374">CombinedContext</text><line style="stroke:#181818;stroke-width:0.5;" x1="326.21" x2="477.3994" y1="167.27" y2="167.27"/><text fill="#000000" font-family="Noto Sans CJK TC" font-size="14" lengthAdjust="spacing" textLength="141.1894" x="331.21" y="187.5099">CoroutineContext left</text><text fill="#000000" font-family="Noto Sans CJK TC" font-size="14" lengthAdjust="spacing" textLength="111.6775" x="331.21" y="207.7818">Element element</text><line style="stroke:#181818;stroke-width:0.5;" x1="326.21" x2="477.3994" y1="215.8138" y2="215.8138"/></g><!--class AbstractCoroutine--><g id="elem_AbstractCoroutine"><rect codeLine="69" fill="#F1F1F1" height="48" id="AbstractCoroutine" rx="2.5" ry="2.5" style="stroke:#181818;stroke-width:0.5;" width="151.9795" x="261.82" y="607.82"/><ellipse cx="276.82" cy="623.82" fill="#ADD1B2" rx="11" ry="11" style="stroke:#181818;stroke-width:1.0;"/><path d="M279.7888,629.4606 Q279.2106,629.7575 278.57,629.8981 Q277.9294,630.0544 277.2263,630.0544 Q274.7263,630.0544 273.3981,628.4138 Q272.0856,626.7575 272.0856,623.6325 Q272.0856,620.5075 273.3981,618.8513 Q274.7263,617.195 277.2263,617.195 Q277.9294,617.195 278.57,617.3513 Q279.2263,617.5075 279.7888,617.8044 L279.7888,620.5231 Q279.1638,619.945 278.57,619.6794 Q277.9763,619.3981 277.3513,619.3981 Q276.0075,619.3981 275.32,620.4763 Q274.6325,621.5388 274.6325,623.6325 Q274.6325,625.7263 275.32,626.8044 Q276.0075,627.8669 277.3513,627.8669 Q277.9763,627.8669 278.57,627.6013 Q279.1638,627.32 279.7888,626.7419 L279.7888,629.4606 Z " fill="#000000"/><text fill="#000000" font-family="Noto Sans CJK TC" font-size="14" lengthAdjust="spacing" textLength="119.9795" x="290.82" y="629.924">AbstractCoroutine</text><line style="stroke:#181818;stroke-width:0.5;" x1="262.82" x2="412.7995" y1="639.82" y2="639.82"/><line style="stroke:#181818;stroke-width:0.5;" x1="262.82" x2="412.7995" y1="647.82" y2="647.82"/></g><!--class StandaloneCoroutine--><g id="elem_StandaloneCoroutine"><rect codeLine="71" fill="#F1F1F1" height="48" id="StandaloneCoroutine" rx="2.5" ry="2.5" style="stroke:#181818;stroke-width:0.5;" width="172.6154" x="280.5" y="715.82"/><ellipse cx="295.5" cy="731.82" fill="#ADD1B2" rx="11" ry="11" style="stroke:#181818;stroke-width:1.0;"/><path d="M298.4688,737.4606 Q297.8906,737.7575 297.25,737.8981 Q296.6094,738.0544 295.9063,738.0544 Q293.4063,738.0544 292.0781,736.4138 Q290.7656,734.7575 290.7656,731.6325 Q290.7656,728.5075 292.0781,726.8513 Q293.4063,725.195 295.9063,725.195 Q296.6094,725.195 297.25,725.3513 Q297.9063,725.5075 298.4688,725.8044 L298.4688,728.5231 Q297.8438,727.945 297.25,727.6794 Q296.6563,727.3981 296.0313,727.3981 Q294.6875,727.3981 294,728.4763 Q293.3125,729.5388 293.3125,731.6325 Q293.3125,733.7263 294,734.8044 Q294.6875,735.8669 296.0313,735.8669 Q296.6563,735.8669 297.25,735.6013 Q297.8438,735.32 298.4688,734.7419 L298.4688,737.4606 Z " fill="#000000"/><text fill="#000000" font-family="Noto Sans CJK TC" font-size="14" lengthAdjust="spacing" textLength="140.6154" x="309.5" y="737.924">StandaloneCoroutine</text><line style="stroke:#181818;stroke-width:0.5;" x1="281.5" x2="452.1154" y1="747.82" y2="747.82"/><line style="stroke:#181818;stroke-width:0.5;" x1="281.5" x2="452.1154" y1="755.82" y2="755.82"/></g><!--class Deferred--><g id="elem_Deferred"><rect codeLine="73" fill="#F1F1F1" height="48" id="Deferred" rx="2.5" ry="2.5" style="stroke:#181818;stroke-width:0.5;" width="88.9938" x="139.31" y="499.82"/><ellipse cx="154.31" cy="515.82" fill="#B4A7E5" rx="11" ry="11" style="stroke:#181818;stroke-width:1.0;"/><path d="M150.2319,511.5856 L150.2319,509.4294 L157.6225,509.4294 L157.6225,511.5856 L155.1538,511.5856 L155.1538,519.6637 L157.6225,519.6637 L157.6225,521.82 L150.2319,521.82 L150.2319,519.6637 L152.7006,519.6637 L152.7006,511.5856 L150.2319,511.5856 Z " fill="#000000"/><text fill="#000000" font-family="Noto Sans CJK TC" font-size="14" font-style="italic" lengthAdjust="spacing" textLength="56.9938" x="168.31" y="521.924">Deferred</text><line style="stroke:#181818;stroke-width:0.5;" x1="140.31" x2="227.3038" y1="531.82" y2="531.82"/><line style="stroke:#181818;stroke-width:0.5;" x1="140.31" x2="227.3038" y1="539.82" y2="539.82"/></g><!--class SelectClause1--><g id="elem_SelectClause1"><rect codeLine="74" fill="#F1F1F1" height="48" id="SelectClause1" rx="2.5" ry="2.5" style="stroke:#181818;stroke-width:0.5;" width="123.6156" x="7" y="607.82"/><ellipse cx="22" cy="623.82" fill="#B4A7E5" rx="11" ry="11" style="stroke:#181818;stroke-width:1.0;"/><path d="M17.9219,619.5856 L17.9219,617.4294 L25.3125,617.4294 L25.3125,619.5856 L22.8438,619.5856 L22.8438,627.6638 L25.3125,627.6638 L25.3125,629.82 L17.9219,629.82 L17.9219,627.6638 L20.3906,627.6638 L20.3906,619.5856 L17.9219,619.5856 Z " fill="#000000"/><text fill="#000000" font-family="Noto Sans CJK TC" font-size="14" font-style="italic" lengthAdjust="spacing" textLength="91.6156" x="36" y="629.924">SelectClause1</text><line style="stroke:#181818;stroke-width:0.5;" x1="8" x2="129.6156" y1="639.82" y2="639.82"/><line style="stroke:#181818;stroke-width:0.5;" x1="8" x2="129.6156" y1="647.82" y2="647.82"/></g><!--class Continuation--><g id="elem_Continuation"><rect fill="#F1F1F1" height="48" id="Continuation" rx="2.5" ry="2.5" style="stroke:#181818;stroke-width:0.5;" width="118.1557" x="263.73" y="499.82"/><ellipse cx="278.73" cy="515.82" fill="#ADD1B2" rx="11" ry="11" style="stroke:#181818;stroke-width:1.0;"/><path d="M281.6988,521.4606 Q281.1206,521.7575 280.48,521.8981 Q279.8394,522.0544 279.1363,522.0544 Q276.6363,522.0544 275.3081,520.4137 Q273.9956,518.7575 273.9956,515.6325 Q273.9956,512.5075 275.3081,510.8512 Q276.6363,509.195 279.1363,509.195 Q279.8394,509.195 280.48,509.3512 Q281.1363,509.5075 281.6988,509.8044 L281.6988,512.5231 Q281.0738,511.945 280.48,511.6794 Q279.8863,511.3981 279.2613,511.3981 Q277.9175,511.3981 277.23,512.4762 Q276.5425,513.5387 276.5425,515.6325 Q276.5425,517.7262 277.23,518.8044 Q277.9175,519.8669 279.2613,519.8669 Q279.8863,519.8669 280.48,519.6012 Q281.0738,519.32 281.6988,518.7419 L281.6988,521.4606 Z " fill="#000000"/><text fill="#000000" font-family="Noto Sans CJK TC" font-size="14" lengthAdjust="spacing" textLength="86.1557" x="292.73" y="521.924">Continuation</text><line style="stroke:#181818;stroke-width:0.5;" x1="264.73" x2="380.8857" y1="531.82" y2="531.82"/><line style="stroke:#181818;stroke-width:0.5;" x1="264.73" x2="380.8857" y1="539.82" y2="539.82"/></g><!--class EmptyCoroutineContext--><g id="elem_EmptyCoroutineContext"><rect fill="#F1F1F1" height="48" id="EmptyCoroutineContext" rx="2.5" ry="2.5" style="stroke:#181818;stroke-width:0.5;" width="190.9554" x="654.33" y="155.54"/><ellipse cx="669.33" cy="171.54" fill="#ADD1B2" rx="11" ry="11" style="stroke:#181818;stroke-width:1.0;"/><path d="M672.2988,177.1806 Q671.7206,177.4775 671.08,177.6181 Q670.4394,177.7744 669.7363,177.7744 Q667.2363,177.7744 665.9081,176.1337 Q664.5956,174.4775 664.5956,171.3525 Q664.5956,168.2275 665.9081,166.5712 Q667.2363,164.915 669.7363,164.915 Q670.4394,164.915 671.08,165.0712 Q671.7363,165.2275 672.2988,165.5244 L672.2988,168.2431 Q671.6738,167.665 671.08,167.3994 Q670.4863,167.1181 669.8613,167.1181 Q668.5175,167.1181 667.83,168.1962 Q667.1425,169.2587 667.1425,171.3525 Q667.1425,173.4462 667.83,174.5244 Q668.5175,175.5869 669.8613,175.5869 Q670.4863,175.5869 671.08,175.3212 Q671.6738,175.04 672.2988,174.4619 L672.2988,177.1806 Z " fill="#000000"/><text fill="#000000" font-family="Noto Sans CJK TC" font-size="14" lengthAdjust="spacing" textLength="158.9554" x="683.33" y="177.644">EmptyCoroutineContext</text><line style="stroke:#181818;stroke-width:0.5;" x1="655.33" x2="844.2854" y1="187.54" y2="187.54"/><line style="stroke:#181818;stroke-width:0.5;" x1="655.33" x2="844.2854" y1="195.54" y2="195.54"/></g><!--class DeferredCoroutine--><g id="elem_DeferredCoroutine"><rect codeLine="82" fill="#F1F1F1" height="48" id="DeferredCoroutine" rx="2.5" ry="2.5" style="stroke:#181818;stroke-width:0.5;" width="154.2475" x="91.68" y="715.82"/><ellipse cx="106.68" cy="731.82" fill="#ADD1B2" rx="11" ry="11" style="stroke:#181818;stroke-width:1.0;"/><path d="M109.6488,737.4606 Q109.0706,737.7575 108.43,737.8981 Q107.7894,738.0544 107.0863,738.0544 Q104.5863,738.0544 103.2581,736.4138 Q101.9456,734.7575 101.9456,731.6325 Q101.9456,728.5075 103.2581,726.8513 Q104.5863,725.195 107.0863,725.195 Q107.7894,725.195 108.43,725.3513 Q109.0863,725.5075 109.6488,725.8044 L109.6488,728.5231 Q109.0238,727.945 108.43,727.6794 Q107.8363,727.3981 107.2113,727.3981 Q105.8675,727.3981 105.18,728.4763 Q104.4925,729.5388 104.4925,731.6325 Q104.4925,733.7263 105.18,734.8044 Q105.8675,735.8669 107.2113,735.8669 Q107.8363,735.8669 108.43,735.6013 Q109.0238,735.32 109.6488,734.7419 L109.6488,737.4606 Z " fill="#000000"/><text fill="#000000" font-family="Noto Sans CJK TC" font-size="14" lengthAdjust="spacing" textLength="122.2475" x="120.68" y="737.924">DeferredCoroutine</text><line style="stroke:#181818;stroke-width:0.5;" x1="92.68" x2="244.9275" y1="747.82" y2="747.82"/><line style="stroke:#181818;stroke-width:0.5;" x1="92.68" x2="244.9275" y1="755.82" y2="755.82"/></g><g id="elem_GMN58"><path d="M636.48,725.4 L636.48,754.224 A0,0 0 0 0 636.48,754.224 L689.135,754.224 A0,0 0 0 0 689.135,754.224 L689.135,735.4 L679.135,725.4 L666.81,725.4 L662.81,656.08 L658.81,725.4 L636.48,725.4 A0,0 0 0 0 636.48,725.4 " fill="#FEFFDD" style="stroke:#181818;stroke-width:0.5;"/><path d="M679.135,725.4 L679.135,735.4 L689.135,735.4 L679.135,725.4 " fill="#FEFFDD" style="stroke:#181818;stroke-width:0.5;"/><text fill="#000000" font-family="Noto Sans CJK TC" font-size="13" lengthAdjust="spacing" textLength="31.655" x="642.48" y="745.48">Job()</text></g><g id="elem_GMN61"><path d="M136.55,823.82 L136.55,852.644 A0,0 0 0 0 136.55,852.644 L201.074,852.644 A0,0 0 0 0 201.074,852.644 L201.074,833.82 L191.074,823.82 L172.81,823.82 L168.81,764.15 L164.81,823.82 L136.55,823.82 A0,0 0 0 0 136.55,823.82 " fill="#FEFFDD" style="stroke:#181818;stroke-width:0.5;"/><path d="M191.074,823.82 L191.074,833.82 L201.074,833.82 L191.074,823.82 " fill="#FEFFDD" style="stroke:#181818;stroke-width:0.5;"/><text fill="#000000" font-family="Noto Sans CJK TC" font-size="13" lengthAdjust="spacing" textLength="43.524" x="142.55" y="843.9">async{}</text></g><g id="elem_GMN64"><path d="M331.24,823.82 L331.24,852.644 A0,0 0 0 0 331.24,852.644 L402.381,852.644 A0,0 0 0 0 402.381,852.644 L402.381,833.82 L392.381,823.82 L370.81,823.82 L366.81,764.15 L362.81,823.82 L331.24,823.82 A0,0 0 0 0 331.24,823.82 " fill="#FEFFDD" style="stroke:#181818;stroke-width:0.5;"/><path d="M392.381,823.82 L392.381,833.82 L402.381,833.82 L392.381,823.82 " fill="#FEFFDD" style="stroke:#181818;stroke-width:0.5;"/><text fill="#000000" font-family="Noto Sans CJK TC" font-size="13" lengthAdjust="spacing" textLength="50.141" x="337.24" y="843.9">launch{}</text></g><g id="elem_GMN67"><path d="M1084.55,823.82 L1084.55,852.644 A0,0 0 0 0 1084.55,852.644 L1225.0721,852.644 A0,0 0 0 0 1225.0721,852.644 L1225.0721,833.82 L1215.0721,823.82 L1158.81,823.82 L1154.81,764.15 L1150.81,823.82 L1084.55,823.82 A0,0 0 0 0 1084.55,823.82 " fill="#FEFFDD" style="stroke:#181818;stroke-width:0.5;"/><path d="M1215.0721,823.82 L1215.0721,833.82 L1225.0721,833.82 L1215.0721,823.82 " fill="#FEFFDD" style="stroke:#181818;stroke-width:0.5;"/><text fill="#000000" font-family="Noto Sans CJK TC" font-size="13" lengthAdjust="spacing" textLength="119.5221" x="1090.55" y="843.9">Dispatchers.Default</text></g><g id="elem_GMN70"><path d="M913.91,823.82 L913.91,852.644 A0,0 0 0 0 913.91,852.644 L1023.7131,852.644 A0,0 0 0 0 1023.7131,852.644 L1023.7131,833.82 L1013.7131,823.82 L972.81,823.82 L968.81,764.15 L964.81,823.82 L913.91,823.82 A0,0 0 0 0 913.91,823.82 " fill="#FEFFDD" style="stroke:#181818;stroke-width:0.5;"/><path d="M1013.7131,823.82 L1013.7131,833.82 L1023.7131,833.82 L1013.7131,823.82 " fill="#FEFFDD" style="stroke:#181818;stroke-width:0.5;"/><text fill="#000000" font-family="Noto Sans CJK TC" font-size="13" lengthAdjust="spacing" textLength="88.8031" x="919.91" y="843.9">Dispatchers.IO</text></g><!--reverse link CoroutineContext to Element--><g id="link_CoroutineContext_Element"><path codeLine="8" d="M466.8207,87.6161 C490.0707,108.7461 506.7,123.88 529.97,145.05 " fill="none" id="CoroutineContext-backto-Element" style="stroke:#181818;stroke-width:1.0;stroke-dasharray:7.0,7.0;"/><polygon fill="none" points="453.5,75.51,462.7854,92.0564,470.8561,83.1759,453.5,75.51" style="stroke:#181818;stroke-width:1.0;"/></g><!--reverse link Element to AbstractCoroutineContextElement--><g id="link_Element_AbstractCoroutineContextElement"><path d="M634.2343,223.7632 C668.3243,245.6132 696.8,263.86 727.2,283.35 " fill="none" id="Element-backto-AbstractCoroutineContextElement" style="stroke:#181818;stroke-width:1.0;"/><polygon fill="none" points="619.08,214.05,630.9966,228.8146,637.4721,218.7117,619.08,214.05" style="stroke:#181818;stroke-width:1.0;"/></g><!--reverse link AbstractCoroutineContextElement to CoroutineDispatcher--><g id="link_AbstractCoroutineContextElement_CoroutineDispatcher"><path d="M846.529,338.2425 C895.979,355.8325 946.48,373.79 995.95,391.39 " fill="none" id="AbstractCoroutineContextElement-backto-CoroutineDispatcher" style="stroke:#181818;stroke-width:1.0;"/><polygon fill="none" points="829.57,332.21,844.5182,343.8955,848.5399,332.5895,829.57,332.21" style="stroke:#181818;stroke-width:1.0;"/></g><!--reverse link ContinuationInterceptor to CoroutineDispatcher--><g id="link_ContinuationInterceptor_CoroutineDispatcher"><path codeLine="17" d="M1061.81,350.08 C1061.81,367.75 1061.81,373.95 1061.81,391.61 " fill="none" id="ContinuationInterceptor-backto-CoroutineDispatcher" style="stroke:#181818;stroke-width:1.0;stroke-dasharray:7.0,7.0;"/><polygon fill="none" points="1061.81,332.08,1055.81,350.08,1067.81,350.08,1061.81,332.08" style="stroke:#181818;stroke-width:1.0;"/></g><!--reverse link CoroutineDispatcher to ExecutorCoroutineDispatcher--><g id="link_CoroutineDispatcher_ExecutorCoroutineDispatcher"><path d="M1061.81,458.08 C1061.81,475.75 1061.81,481.95 1061.81,499.61 " fill="none" id="CoroutineDispatcher-backto-ExecutorCoroutineDispatcher" style="stroke:#181818;stroke-width:1.0;"/><polygon fill="none" points="1061.81,440.08,1055.81,458.08,1067.81,458.08,1061.81,440.08" style="stroke:#181818;stroke-width:1.0;"/></g><!--reverse link ExecutorCoroutineDispatcher to ExperimentalCoroutineDispatcher--><g id="link_ExecutorCoroutineDispatcher_ExperimentalCoroutineDispatcher"><path d="M1061.81,566.08 C1061.81,583.75 1061.81,589.95 1061.81,607.61 " fill="none" id="ExecutorCoroutineDispatcher-backto-ExperimentalCoroutineDispatcher" style="stroke:#181818;stroke-width:1.0;"/><polygon fill="none" points="1061.81,548.08,1055.81,566.08,1067.81,566.08,1061.81,548.08" style="stroke:#181818;stroke-width:1.0;"/></g><!--reverse link ExperimentalCoroutineDispatcher to DefaultScheduler--><g id="link_ExperimentalCoroutineDispatcher_DefaultScheduler"><path d="M1094.0899,669.6117 C1109.5899,687.2817 1118.95,697.95 1134.45,715.61 " fill="none" id="ExperimentalCoroutineDispatcher-backto-DefaultScheduler" style="stroke:#181818;stroke-width:1.0;"/><polygon fill="none" points="1082.22,656.08,1089.5793,673.5683,1098.6004,665.655,1082.22,656.08" style="stroke:#181818;stroke-width:1.0;"/></g><!--reverse link ExperimentalCoroutineDispatcher to LimitingDispatcher--><g id="link_ExperimentalCoroutineDispatcher_LimitingDispatcher"><path d="M1029.5258,669.6079 C1014.0158,687.2779 1004.66,697.95 989.17,715.61 " fill="none" id="ExperimentalCoroutineDispatcher-backto-LimitingDispatcher" style="stroke:#181818;stroke-width:1.0;"/><polygon fill="none" points="1041.4,656.08,1025.0165,665.6498,1034.0351,673.5659,1041.4,656.08" style="stroke:#181818;stroke-width:1.0;"/></g><!--reverse link Element to Job--><g id="link_Element_Job"><path codeLine="31" d="M560.7018,231.9237 C558.0918,253.8437 556.89,264.05 554.57,283.55 " fill="none" id="Element-backto-Job" style="stroke:#181818;stroke-width:1.0;stroke-dasharray:7.0,7.0;"/><polygon fill="none" points="562.83,214.05,554.7439,231.2143,566.6597,232.6331,562.83,214.05" style="stroke:#181818;stroke-width:1.0;"/></g><!--reverse link Job to JobSupport--><g id="link_Job_JobSupport"><path codeLine="44" d="M597.4307,325.7139 C608.9307,329.8439 605.43,328.3 617.81,331.82 C736.48,365.5 811.58,295.62 888.81,391.82 C941.19,457.06 800.68,496.31 718.11,513.14 " fill="none" id="Job-backto-JobSupport" style="stroke:#181818;stroke-width:1.0;stroke-dasharray:7.0,7.0;"/><polygon fill="none" points="580.49,319.63,595.4027,331.3608,599.4586,320.067,580.49,319.63" style="stroke:#181818;stroke-width:1.0;"/></g><!--reverse link Job to ChildJob--><g id="link_Job_ChildJob"><path codeLine="45" d="M544.4615,349.7971 C541.2915,367.4671 540.13,373.95 536.97,391.61 " fill="none" id="Job-backto-ChildJob" style="stroke:#181818;stroke-width:1.0;stroke-dasharray:7.0,7.0;"/><polygon fill="none" points="547.64,332.08,538.5558,348.7377,550.3673,350.8566,547.64,332.08" style="stroke:#181818;stroke-width:1.0;"/></g><!--reverse link Job to ParentJob--><g id="link_Job_ParentJob"><path codeLine="46" d="M589.1866,344.5126 C607.6866,362.1826 620.01,373.95 638.51,391.61 " fill="none" id="Job-backto-ParentJob" style="stroke:#181818;stroke-width:1.0;stroke-dasharray:7.0,7.0;"/><polygon fill="none" points="576.17,332.08,585.0424,348.8514,593.3308,340.1737,576.17,332.08" style="stroke:#181818;stroke-width:1.0;"/></g><!--reverse link ChildJob to JobSupport--><g id="link_ChildJob_JobSupport"><path codeLine="47" d="M575.2901,451.4551 C596.9601,469.1251 612.69,481.95 634.35,499.61 " fill="none" id="ChildJob-backto-JobSupport" style="stroke:#181818;stroke-width:1.0;stroke-dasharray:7.0,7.0;"/><polygon fill="none" points="561.34,440.08,571.4984,456.1052,579.0819,446.8051,561.34,440.08" style="stroke:#181818;stroke-width:1.0;"/></g><!--reverse link ParentJob to JobSupport--><g id="link_ParentJob_JobSupport"><path codeLine="48" d="M662.81,458.08 C662.81,475.75 662.81,481.95 662.81,499.61 " fill="none" id="ParentJob-backto-JobSupport" style="stroke:#181818;stroke-width:1.0;stroke-dasharray:7.0,7.0;"/><polygon fill="none" points="662.81,440.08,656.81,458.08,668.81,458.08,662.81,440.08" style="stroke:#181818;stroke-width:1.0;"/></g><!--reverse link SelectClause0 to JobSupport--><g id="link_SelectClause0_JobSupport"><path codeLine="49" d="M762.9482,450.6055 C738.5182,468.2155 719.71,481.78 695.25,499.43 " fill="none" id="SelectClause0-backto-JobSupport" style="stroke:#181818;stroke-width:1.0;stroke-dasharray:7.0,7.0;"/><polygon fill="none" points="777.55,440.08,759.4397,445.7382,766.4567,455.4728,777.55,440.08" style="stroke:#181818;stroke-width:1.0;"/></g><!--reverse link JobSupport to JobImpl--><g id="link_JobSupport_JobImpl"><path d="M662.81,566.08 C662.81,583.75 662.81,589.95 662.81,607.61 " fill="none" id="JobSupport-backto-JobImpl" style="stroke:#181818;stroke-width:1.0;"/><polygon fill="none" points="662.81,548.08,656.81,566.08,668.81,566.08,662.81,548.08" style="stroke:#181818;stroke-width:1.0;"/></g><!--reverse link CoroutineScope to GlobalScope--><g id="link_CoroutineScope_GlobalScope"><path codeLine="57" d="M163.3169,82.5296 C172.3469,107.6596 180.51,130.38 189.49,155.4 " fill="none" id="CoroutineScope-backto-GlobalScope" style="stroke:#181818;stroke-width:1.0;stroke-dasharray:7.0,7.0;"/><polygon fill="none" points="157.23,65.59,157.6704,84.5586,168.9635,80.5006,157.23,65.59" style="stroke:#181818;stroke-width:1.0;"/></g><!--reverse link CoroutineScope to CoroutineContext--><g id="link_CoroutineScope_CoroutineContext"><path codeLine="59" d="M229.9,41.14 C241.17,41.14 240.43,41.14 251.7,41.14 " fill="none" id="CoroutineScope-backto-CoroutineContext" style="stroke:#181818;stroke-width:1.0;"/><polygon fill="#181818" points="217.9,41.14,223.9,45.14,229.9,41.14,223.9,37.14,217.9,41.14" style="stroke:#181818;stroke-width:1.0;"/></g><!--reverse link CoroutineContext to CombinedContext--><g id="link_CoroutineContext_CombinedContext"><path d="M397.8944,93.1096 C394.0544,111.0096 395.09,115.69 394.27,134.95 " fill="none" id="CoroutineContext-backto-CombinedContext" style="stroke:#181818;stroke-width:1.0;"/><polygon fill="none" points="401.67,75.51,392.0279,91.8511,403.761,94.3681,401.67,75.51" style="stroke:#181818;stroke-width:1.0;"/></g><!--reverse link CombinedContext to CoroutineContext--><g id="link_CombinedContext_CoroutineContext"><path codeLine="66" d="M421.0261,123.1327 C424.4261,103.8727 424.51,93.41 424.6,75.51 " fill="none" id="CombinedContext-backto-CoroutineContext" style="stroke:#181818;stroke-width:1.0;"/><polygon fill="#181818" points="418.94,134.95,423.9222,129.7367,421.0261,123.1327,416.044,128.346,418.94,134.95" style="stroke:#181818;stroke-width:1.0;"/></g><!--reverse link CombinedContext to Element--><g id="link_CombinedContext_Element"><path codeLine="67" d="M490.83,179.54 C502.4,179.54 501.97,179.54 513.54,179.54 " fill="none" id="CombinedContext-backto-Element" style="stroke:#181818;stroke-width:1.0;"/><polygon fill="#181818" points="478.83,179.54,484.83,183.54,490.83,179.54,484.83,175.54,478.83,179.54" style="stroke:#181818;stroke-width:1.0;"/></g><!--reverse link JobSupport to AbstractCoroutine--><g id="link_JobSupport_AbstractCoroutine"><path d="M590.1974,548.5019 C535.6274,566.3019 469.19,587.97 409.59,607.4 " fill="none" id="JobSupport-backto-AbstractCoroutine" style="stroke:#181818;stroke-width:1.0;"/><polygon fill="none" points="607.31,542.92,588.3367,542.7977,592.058,554.2061,607.31,542.92" style="stroke:#181818;stroke-width:1.0;"/></g><!--reverse link AbstractCoroutine to StandaloneCoroutine--><g id="link_AbstractCoroutine_StandaloneCoroutine"><path d="M348.9252,673.4405 C353.7652,691.1105 355.63,697.95 360.46,715.61 " fill="none" id="AbstractCoroutine-backto-StandaloneCoroutine" style="stroke:#181818;stroke-width:1.0;"/><polygon fill="none" points="344.17,656.08,343.1384,675.0256,354.7121,671.8554,344.17,656.08" style="stroke:#181818;stroke-width:1.0;"/></g><!--reverse link Job to AbstractCoroutine--><g id="link_Job_AbstractCoroutine"><path codeLine="76" d="M510.7858,344.2091 C493.5358,359.7991 485.15,369.42 469.81,391.82 C426.86,454.51 438.34,482.31 399.81,547.82 C387.32,569.06 370.44,591.33 357.45,607.45 " fill="none" id="Job-backto-AbstractCoroutine" style="stroke:#181818;stroke-width:1.0;stroke-dasharray:7.0,7.0;"/><polygon fill="none" points="524.14,332.14,506.7627,339.7577,514.8088,348.6606,524.14,332.14" style="stroke:#181818;stroke-width:1.0;"/></g><!--reverse link Continuation to AbstractCoroutine--><g id="link_Continuation_AbstractCoroutine"><path codeLine="77" d="M328.6216,565.9025 C331.1216,583.5725 332.02,589.95 334.52,607.61 " fill="none" id="Continuation-backto-AbstractCoroutine" style="stroke:#181818;stroke-width:1.0;stroke-dasharray:7.0,7.0;"/><polygon fill="none" points="326.1,548.08,322.6807,566.743,334.5624,565.062,326.1,548.08" style="stroke:#181818;stroke-width:1.0;"/></g><!--reverse link CoroutineScope to AbstractCoroutine--><g id="link_CoroutineScope_AbstractCoroutine"><path codeLine="78" d="M133.1427,82.2586 C115.8427,127.8386 86.81,215.49 86.81,306.82 C86.81,306.82 86.81,306.82 86.81,416.82 C86.81,477.08 81.51,503.01 121.81,547.82 C157.67,587.69 214.87,608.55 261.4,619.38 " fill="none" id="CoroutineScope-backto-AbstractCoroutine" style="stroke:#181818;stroke-width:1.0;stroke-dasharray:7.0,7.0;"/><polygon fill="none" points="139.53,65.43,127.5331,80.1295,138.7522,84.3877,139.53,65.43" style="stroke:#181818;stroke-width:1.0;"/></g><!--reverse link CoroutineContext to EmptyCoroutineContext--><g id="link_CoroutineContext_EmptyCoroutineContext"><path codeLine="79" d="M515.3564,82.5037 C575.5264,107.1537 639.14,133.21 692.55,155.09 " fill="none" id="CoroutineContext-backto-EmptyCoroutineContext" style="stroke:#181818;stroke-width:1.0;stroke-dasharray:7.0,7.0;"/><polygon fill="none" points="498.7,75.68,513.0819,88.0558,517.631,76.9515,498.7,75.68" style="stroke:#181818;stroke-width:1.0;"/></g><!--reverse link Job to Deferred--><g id="link_Job_Deferred"><path codeLine="80" d="M507.4693,334.5308 C478.5893,351.2808 448.39,368.81 408.81,391.82 C344.13,429.41 269.04,473.15 224.04,499.37 " fill="none" id="Job-backto-Deferred" style="stroke:#181818;stroke-width:1.0;stroke-dasharray:7.0,7.0;"/><polygon fill="none" points="523.04,325.5,504.4591,329.3405,510.4796,339.721,523.04,325.5" style="stroke:#181818;stroke-width:1.0;"/></g><!--reverse link AbstractCoroutine to DeferredCoroutine--><g id="link_AbstractCoroutine_DeferredCoroutine"><path d="M285.4707,665.6434 C257.3907,683.2534 234.23,697.78 206.1,715.43 " fill="none" id="AbstractCoroutine-backto-DeferredCoroutine" style="stroke:#181818;stroke-width:1.0;"/><polygon fill="none" points="300.72,656.08,282.2829,660.5603,288.6585,670.7265,300.72,656.08" style="stroke:#181818;stroke-width:1.0;"/></g><!--reverse link Deferred to DeferredCoroutine--><g id="link_Deferred_DeferredCoroutine"><path codeLine="85" d="M180.9136,566.0861 C178.0336,607.2461 173.32,674.39 170.44,715.54 " fill="none" id="Deferred-backto-DeferredCoroutine" style="stroke:#181818;stroke-width:1.0;stroke-dasharray:7.0,7.0;"/><polygon fill="none" points="182.17,548.13,174.9282,565.6673,186.899,566.5049,182.17,548.13" style="stroke:#181818;stroke-width:1.0;"/></g><!--reverse link SelectClause1 to DeferredCoroutine--><g id="link_SelectClause1_DeferredCoroutine"><path codeLine="86" d="M103.106,669.1693 C119.786,686.8393 130.25,697.95 146.91,715.61 " fill="none" id="SelectClause1-backto-DeferredCoroutine" style="stroke:#181818;stroke-width:1.0;stroke-dasharray:7.0,7.0;"/><polygon fill="none" points="90.75,656.08,98.7429,673.288,107.4691,665.0507,90.75,656.08" style="stroke:#181818;stroke-width:1.0;"/></g><!--SRC=[ZLHjRziW4FxEhq3vr5Phzl8nYYfDIJUbdRf9tX_0-DAWOK20fLfU__km7R0nTh9lSFVSSmztt6sDhJay82sbnGt2-9iKzeMKW5SlqagS4M7mxkaP_zwjFgpsNtQoOE9rXTxHzkCvb0aB-aWeu9tKih9CmCwHm9jj-J1MLSuPJPnOyShSJAstZdd4-CYX1D4h2qpFKEC_K3jamhdzkrxx88Ge9yRWhxcncb0x1NjkTmHHc25i_23X0YfYcHI7raf1MQazSs3SCwE8fIVGWUrArgPzvm9z_uePSf_tyGrevO2Nyi_ukfoUGO5chH32Bx5SoDGWHzUpxU58AcupPoug7eLVJ3CIz8ELp3bVPpLS9_6zx2ht97CqxgAxjw1HMq-C5udr5z6E8Z5dmC6raPFAmASclDdXiaefgRjMkbl8VJOFDfzki8HKoFkIw019F96Wn1lK7Kh5GmrZjNCZcr6fm7VZEvSvuPq9D-CvwqrTpX46JG5tzycu3pDJvivQ-8bD_ckqEv81vt2qdITCxtbgkt6AgU_kPsIaeAlxOg6AFJgpH1I4opR359ymnJ_BZGre3SN2P_kCXW-JC4Mx0o-3ehPSXSLhj5IsJkeN90NrmnBexlzP1kJnCTiWAYh54WW9QG7dqbfPOdaC_txJdcvkf-vKumOJKmlQl4-XSttTOAT6q5EAJZRW1WyRogpFxcdKpDABumu__m40]--></g></svg>